<svg width="21" height="20" viewBox="0 0 21 20" fill="none" xmlns="http://www.w3.org/2000/svg">
<g clip-path="url(#clip0_288_9562)">
<path d="M17.6143 14.0625C18.9323 14.0625 19.8161 13.1844 19.8161 11.875C19.8161 10.5659 18.9323 9.0625 17.6143 9.0625C17.6143 5.78906 14.6183 3.4375 11.3235 3.4375C8.40736 3.4375 5.8668 5.37844 5.34717 8.125C5.34717 8.125 4.95966 8.125 4.71809 8.125C3.07052 8.125 1.88721 9.61313 1.88721 11.25C1.88721 12.8869 3.07052 14.0625 4.71809 14.0625H17.6143Z" stroke="#FAFAFA" stroke-width="2" stroke-miterlimit="10"/>
<path d="M9.43601 3.6725C8.74213 3.13375 7.86896 2.8125 6.91998 2.8125C4.66157 2.8125 2.83093 4.63125 2.83093 6.875C2.83093 7.68031 3.05331 8.11844 3.46002 8.75" stroke="#FAFAFA" stroke-width="2" stroke-miterlimit="10"/>
<path d="M1.88725 6.875H0" stroke="#FAFAFA" stroke-width="2" stroke-miterlimit="10"/>
<path d="M6.91992 1.875V0" stroke="#FAFAFA" stroke-width="2" stroke-miterlimit="10"/>
<path d="M3.14543 3.125L1.25818 1.25" stroke="#FAFAFA" stroke-width="2" stroke-miterlimit="10"/>
<path d="M6.29088 15L3.77454 19.375" stroke="#FAFAFA" stroke-width="2" stroke-miterlimit="10"/>
<path d="M9.43626 15L6.91992 19.375" stroke="#FAFAFA" stroke-width="2" stroke-miterlimit="10"/>
<path d="M12.5816 15L10.0653 19.375" stroke="#FAFAFA" stroke-width="2" stroke-miterlimit="10"/>
<path d="M15.7272 15L13.2108 19.375" stroke="#FAFAFA" stroke-width="2" stroke-miterlimit="10"/>
</g>
<defs>
<clipPath id="clip0_288_9562">
<rect width="20.1307" height="20" fill="white"/>
</clipPath>
</defs>
</svg>
