<svg width="21" height="20" viewBox="0 0 21 20" fill="none" xmlns="http://www.w3.org/2000/svg">
<g clip-path="url(#clip0_271_4837)">
<path d="M17.6148 14.0625C18.9328 14.0625 19.8166 13.1844 19.8166 11.875C19.8166 10.5659 18.9328 9.0625 17.6148 9.0625C17.6148 5.78906 14.6188 3.4375 11.324 3.4375C8.40785 3.4375 5.86729 5.37844 5.34766 8.125C5.34766 8.125 4.96015 8.125 4.71858 8.125C3.071 8.125 1.8877 9.61313 1.8877 11.25C1.8877 12.8869 3.071 14.0625 4.71858 14.0625H17.6148Z" stroke="#2B2928" stroke-miterlimit="10"/>
<path d="M9.43613 3.6725C8.74225 3.13375 7.86908 2.8125 6.92011 2.8125C4.66169 2.8125 2.83105 4.63125 2.83105 6.875C2.83105 7.68031 3.05344 8.11844 3.46014 8.75" stroke="#2B2928" stroke-miterlimit="10"/>
<path d="M1.88725 6.875H0" stroke="#2B2928" stroke-miterlimit="10"/>
<path d="M6.91992 1.875V0" stroke="#2B2928" stroke-miterlimit="10"/>
<path d="M3.14507 3.125L1.25781 1.25" stroke="#2B2928" stroke-miterlimit="10"/>
<path d="M6.29075 15L3.77441 19.375" stroke="#2B2928" stroke-miterlimit="10"/>
<path d="M9.43626 15L6.91992 19.375" stroke="#2B2928" stroke-miterlimit="10"/>
<path d="M12.5818 15L10.0654 19.375" stroke="#2B2928" stroke-miterlimit="10"/>
<path d="M15.7273 15L13.2109 19.375" stroke="#2B2928" stroke-miterlimit="10"/>
</g>
<defs>
<clipPath id="clip0_271_4837">
<rect width="20.1307" height="20" fill="white"/>
</clipPath>
</defs>
</svg>
