<svg width="24" height="24" viewBox="0 0 24 24" fill="none" xmlns="http://www.w3.org/2000/svg">
<path d="M12 13.5351H11.5C11.5 13.7136 11.5951 13.8786 11.7496 13.9679L12 13.5351ZM8 13.5351L8.25036 13.9679C8.40486 13.8786 8.5 13.7136 8.5 13.5351H8ZM11.5 5V13.5351H12.5V5H11.5ZM10 3.5C10.8284 3.5 11.5 4.17157 11.5 5H12.5C12.5 3.61929 11.3807 2.5 10 2.5V3.5ZM8.5 5C8.5 4.17157 9.17157 3.5 10 3.5V2.5C8.61929 2.5 7.5 3.61929 7.5 5H8.5ZM8.5 13.5351V5H7.5V13.5351H8.5ZM6.5 17C6.5 15.7051 7.20291 14.5739 8.25036 13.9679L7.74964 13.1023C6.40589 13.8796 5.5 15.3337 5.5 17H6.5ZM10 20.5C8.067 20.5 6.5 18.933 6.5 17H5.5C5.5 19.4853 7.51472 21.5 10 21.5V20.5ZM13.5 17C13.5 18.933 11.933 20.5 10 20.5V21.5C12.4853 21.5 14.5 19.4853 14.5 17H13.5ZM11.7496 13.9679C12.7971 14.5739 13.5 15.7051 13.5 17H14.5C14.5 15.3337 13.5941 13.8796 12.2504 13.1023L11.7496 13.9679Z" fill="#2B2928"/>
<path d="M15 11H17" stroke="#2B2928" stroke-linecap="round" stroke-linejoin="round"/>
<path d="M15 8H17" stroke="#2B2928" stroke-linecap="round" stroke-linejoin="round"/>
<path d="M15 5H19" stroke="#2B2928" stroke-linecap="round" stroke-linejoin="round"/>
<circle cx="10" cy="17" r="1" fill="#2B2928"/>
</svg>
