<svg fill="none" height="44" viewBox="0 0 61 44" width="61" xmlns="http://www.w3.org/2000/svg"><path d="m22.4536 8.61072 6.464-5.06383c.9308-.72919 2.2342-.72919 3.165 0l6.4639 5.06383c.7379.57805.9429 1.43838.9531 2.43278.0006.0539-.0011.106-.0052.1598-.0418.5515-.3309 3.9216-1.3995 7.7051-.3775 1.0531-1.2659 2.0916-2.4882 2.0916h-10.2133c-1.2222 0-2.1107-1.0385-2.4882-2.0916-1.0685-3.7835-1.3576-7.1536-1.3995-7.7051-.004-.0538-.0058-.1059-.0052-.1598.0102-.9944.2152-1.85473.9531-2.43278z" stroke="#0a0b0a" stroke-linecap="round" stroke-width="1.5"/><path d="m21.64 35.03v6.97h-.91v-3.16h-3.55v3.16h-.91v-6.97h.91v3.06h3.55v-3.06zm3.9438 7.06c-.5133 0-.98-.1167-1.4-.35-.4133-.2333-.74-.5633-.98-.99-.2333-.4333-.35-.9333-.35-1.5 0-.56.12-1.0533.36-1.48.2467-.4333.58-.7633 1-.99.42-.2333.89-.35 1.41-.35s.99.1167 1.41.35c.42.2267.75.5533.99.98.2467.4267.37.9233.37 1.49s-.1266 1.0667-.38 1.5c-.2466.4267-.5833.7567-1.01.99-.4266.2333-.9.35-1.42.35zm0-.8c.3267 0 .6334-.0767.92-.23.2867-.1533.5167-.3833.69-.69.18-.3067.27-.68.27-1.12s-.0866-.8133-.26-1.12c-.1733-.3067-.4-.5333-.68-.68-.28-.1533-.5833-.23-.91-.23-.3333 0-.64.0767-.92.23-.2733.1467-.4933.3733-.66.68-.1666.3067-.25.68-.25 1.12 0 .4467.08.8233.24 1.13.1667.3067.3867.5367.66.69.2734.1467.5734.22.9.22zm10.5965-4.87c.4267 0 .8067.09 1.14.27.3333.1733.5967.4367.79.79s.29.7833.29 1.29v3.23h-.9v-3.1c0-.5467-.1367-.9633-.41-1.25-.2667-.2933-.63-.44-1.09-.44-.4733 0-.85.1533-1.13.46-.28.3-.42.7367-.42 1.31v3.02h-.9v-3.1c0-.5467-.1367-.9633-.41-1.25-.2667-.2933-.63-.44-1.09-.44-.4733 0-.85.1533-1.13.46-.28.3-.42.7367-.42 1.31v3.02h-.91v-5.48h.91v.79c.18-.2867.42-.5067.72-.66.3067-.1533.6433-.23 1.01-.23.46 0 .8667.1033 1.22.31s.6167.51.79.91c.1533-.3867.4067-.6867.76-.9s.7467-.32 1.18-.32zm8.7127 2.63c0 .1733-.01.3567-.03.55h-4.38c.0334.54.2167.9633.55 1.27.34.3.75.45 1.23.45.3934 0 .72-.09.98-.27.2667-.1867.4534-.4333.56-.74h.98c-.1466.5267-.44.9567-.88 1.29-.44.3267-.9866.49-1.64.49-.52 0-.9866-.1167-1.4-.35-.4066-.2333-.7266-.5633-.96-.99-.2333-.4333-.35-.9333-.35-1.5s.1134-1.0633.34-1.49c.2267-.4267.5434-.7533.95-.98.4134-.2333.8867-.35 1.42-.35.52 0 .98.1133 1.38.34s.7067.54.92.94c.22.3933.33.84.33 1.34zm-.94-.19c0-.3467-.0766-.6433-.23-.89-.1533-.2533-.3633-.4433-.63-.57-.26-.1333-.55-.2-.87-.2-.46 0-.8533.1467-1.18.44-.32.2933-.5033.7-.55 1.22z" fill="#2b2928"/></svg>