<svg fill="none" height="44" viewBox="0 0 61 44" width="61" xmlns="http://www.w3.org/2000/svg"><path d="m38.1515 19.4054c.5528-.1152.8821-.6937.6074-1.1871-.6056-1.0876-1.5596-2.0434-2.7801-2.7718-1.5718-.938-3.4976-1.4465-5.4788-1.4465s-3.9071.5085-5.4789 1.4465c-1.2204.7284-2.1744 1.6842-2.78 2.7718-.2747.4934.0545 1.0719.6073 1.1871 5.0468 1.0518 10.2563 1.0518 15.3031 0z" fill="#3abc4f"/><circle cx="30.5" cy="8" fill="#3abc4f" r="5"/><path d="m20.43 37.07c0 .58-.2 1.0633-.6 1.45-.3933.38-.9967.57-1.81.57h-1.34v2.91h-.91v-6.97h2.25c.7867 0 1.3833.19 1.79.57.4133.38.62.87.62 1.47zm-2.41 1.27c.5067 0 .88-.11 1.12-.33s.36-.5333.36-.94c0-.86-.4933-1.29-1.48-1.29h-1.34v2.56zm4.451-.93c.16-.3133.3867-.5567.68-.73.3-.1733.6633-.26 1.09-.26v.94h-.24c-1.02 0-1.53.5533-1.53 1.66v2.98h-.91v-5.48h.91zm5.2105 4.68c-.5133 0-.98-.1167-1.4-.35-.4133-.2333-.74-.5633-.98-.99-.2333-.4333-.35-.9333-.35-1.5 0-.56.12-1.0533.36-1.48.2467-.4333.58-.7633 1-.99.42-.2333.89-.35 1.41-.35s.99.1167 1.41.35c.42.2267.75.5533.99.98.2467.4267.37.9233.37 1.49s-.1267 1.0667-.38 1.5c-.2467.4267-.5833.7567-1.01.99s-.9.35-1.42.35zm0-.8c.3267 0 .6333-.0767.92-.23s.5167-.3833.69-.69c.18-.3067.27-.68.27-1.12s-.0867-.8133-.26-1.12-.4-.5333-.68-.68c-.28-.1533-.5833-.23-.91-.23-.3333 0-.64.0767-.92.23-.2733.1467-.4933.3733-.66.68s-.25.68-.25 1.12c0 .4467.08.8233.24 1.13.1667.3067.3867.5367.66.69.2733.1467.5733.22.9.22zm6.2365-4.02h-1.15v4.73h-.91v-4.73h-.71v-.75h.71v-.39c0-.6133.1566-1.06.47-1.34.32-.2867.83-.43 1.53-.43v.76c-.4 0-.6834.08-.85.24-.16.1533-.24.41-.24.77v.39h1.15zm1.531-1.64c-.1733 0-.32-.06-.44-.18s-.18-.2667-.18-.44.06-.32.18-.44.2667-.18.44-.18c.1667 0 .3067.06.42.18.12.12.18.2667.18.44s-.06.32-.18.44c-.1133.12-.2533.18-.42.18zm.44.89v5.48h-.91v-5.48zm2.4609-1.92v7.4h-.91v-7.4zm6.551 4.45c0 .1733-.01.3567-.03.55h-4.38c.0333.54.2166.9633.55 1.27.34.3.75.45 1.23.45.3933 0 .72-.09.98-.27.2666-.1867.4533-.4333.56-.74h.98c-.1467.5267-.44.9567-.88 1.29-.44.3267-.9867.49-1.64.49-.52 0-.9867-.1167-1.4-.35-.4067-.2333-.7267-.5633-.96-.99-.2334-.4333-.35-.9333-.35-1.5s.1133-1.0633.34-1.49c.2266-.4267.5433-.7533.95-.98.4133-.2333.8866-.35 1.42-.35.52 0 .98.1133 1.38.34s.7066.54.92.94c.22.3933.33.84.33 1.34zm-.94-.19c0-.3467-.0767-.6433-.23-.89-.1534-.2533-.3634-.4433-.63-.57-.26-.1333-.55-.2-.87-.2-.46 0-.8534.1467-1.18.44-.32.2933-.5034.7-.55 1.22z" fill="#2b2928"/></svg>