<svg fill="none" height="44" viewBox="0 0 61 44" width="61" xmlns="http://www.w3.org/2000/svg"><circle cx="29.5" cy="11" r="7" stroke="#2b2928" stroke-width="2"/><path d="m38.5 20-3-3" stroke="#2b2928" stroke-linecap="round" stroke-width="2"/><path d="m15.48 42.07c-.46 0-.8733-.08-1.24-.24-.36-.1667-.6433-.3933-.85-.68-.2067-.2933-.3133-.63-.32-1.01h.97c.0333.3267.1667.6033.4.83.24.22.5867.33 1.04.33.4333 0 .7733-.1067 1.02-.32.2533-.22.38-.5.38-.84 0-.2667-.0733-.4833-.22-.65s-.33-.2933-.55-.38-.5167-.18-.89-.28c-.46-.12-.83-.24-1.11-.36-.2733-.12-.51-.3067-.71-.56-.1933-.26-.29-.6067-.29-1.04 0-.38.0967-.7167.29-1.01s.4633-.52.81-.68c.3533-.16.7567-.24 1.21-.24.6533 0 1.1867.1633 1.6.49.42.3267.6567.76.71 1.3h-1c-.0333-.2667-.1733-.5-.42-.7-.2467-.2067-.5733-.31-.98-.31-.38 0-.69.1-.93.3-.24.1933-.36.4667-.36.82 0 .2533.07.46.21.62.1467.16.3233.2833.53.37.2133.08.51.1733.89.28.46.1267.83.2533 1.11.38.28.12.52.31.72.57.2.2533.3.6.3 1.04 0 .34-.09.66-.27.96s-.4467.5433-.8.73-.77.28-1.25.28zm8.6591-3.02c0 .1733-.01.3567-.03.55h-4.38c.0334.54.2167.9633.55 1.27.34.3.75.45 1.23.45.3934 0 .72-.09.98-.27.2667-.1867.4534-.4333.56-.74h.98c-.1466.5267-.44.9567-.88 1.29-.44.3267-.9866.49-1.64.49-.52 0-.9866-.1167-1.4-.35-.4066-.2333-.7266-.5633-.96-.99-.2333-.4333-.35-.9333-.35-1.5s.1134-1.0633.34-1.49c.2267-.4267.5434-.7533.95-.98.4134-.2333.8867-.35 1.42-.35.52 0 .98.1133 1.38.34s.7067.54.92.94c.22.3933.33.84.33 1.34zm-.94-.19c0-.3467-.0766-.6433-.23-.89-.1533-.2533-.3633-.4433-.63-.57-.26-.1333-.55-.2-.87-.2-.46 0-.8533.1467-1.18.44-.32.2933-.5033.7-.55 1.22zm1.8012.38c0-.56.1133-1.05.34-1.47.2267-.4267.5367-.7567.93-.99.4-.2333.8433-.35 1.33-.35.48 0 .8967.1033 1.25.31s.6167.4667.79.78v-1h.92v5.48h-.92v-1.02c-.18.32-.45.5867-.81.8-.3533.2067-.7667.31-1.24.31-.4867 0-.9267-.12-1.32-.36s-.7033-.5767-.93-1.01-.34-.9267-.34-1.48zm4.64.01c0-.4133-.0833-.7733-.25-1.08s-.3933-.54-.68-.7c-.28-.1667-.59-.25-.93-.25s-.65.08-.93.24-.5033.3933-.67.7-.25.6667-.25 1.08c0 .42.0833.7867.25 1.1.1667.3067.39.5433.67.71.28.16.59.24.93.24s.65-.08.93-.24c.2867-.1667.5133-.4033.68-.71.1667-.3133.25-.6767.25-1.09zm3.3678-1.84c.16-.3133.3867-.5567.68-.73.3-.1733.6634-.26 1.09-.26v.94h-.24c-1.02 0-1.53.5533-1.53 1.66v2.98h-.91v-5.48h.91zm2.4805 1.84c0-.5667.1133-1.06.34-1.48.2267-.4267.54-.7567.94-.99.4067-.2333.87-.35 1.39-.35.6733 0 1.2267.1633 1.66.49.44.3267.73.78.87 1.36h-.98c-.0933-.3333-.2767-.5967-.55-.79-.2667-.1933-.6-.29-1-.29-.52 0-.94.18-1.26.54-.32.3533-.48.8567-.48 1.51 0 .66.16 1.17.48 1.53s.74.54 1.26.54c.4 0 .7333-.0933 1-.28s.45-.4533.55-.8h.98c-.1467.56-.44 1.01-.88 1.35-.44.3333-.99.5-1.65.5-.52 0-.9833-.1167-1.39-.35-.4-.2333-.7133-.5633-.94-.99s-.34-.9267-.34-1.5zm9.1342-2.83c.4133 0 .7867.09 1.12.27.3333.1733.5933.4367.78.79.1933.3533.29.7833.29 1.29v3.23h-.9v-3.1c0-.5467-.1367-.9633-.41-1.25-.2733-.2933-.6467-.44-1.12-.44-.48 0-.8633.15-1.15.45-.28.3-.42.7367-.42 1.31v3.03h-.91v-7.4h.91v2.7c.18-.28.4267-.4967.74-.65.32-.1533.6767-.23 1.07-.23z" fill="#2b2928"/></svg>