<svg fill="none" height="44" viewBox="0 0 61 44" width="61" xmlns="http://www.w3.org/2000/svg"><path d="m22.818 20.536c1.318 1.464 3.44 1.464 7.682 1.464 4.243 0 6.364 0 7.682-1.465 1.318-1.463 1.318-3.821 1.318-8.535s0-7.071-1.318-8.536c-1.318-1.464-3.44-1.464-7.682-1.464-4.243 0-6.364 0-7.682 1.464-1.318 1.466-1.318 3.822-1.318 8.536s0 7.072 1.318 8.536z" stroke="#2b2928" stroke-width="1.5"/><path d="m25.5 8c0-.465 0-.697.051-.888.0682-.25413.202-.48586.3881-.67191.186-.18606.4178-.3199.6719-.38809.193-.052.425-.052.889-.052h6c.465 0 .697 0 .888.051.2541.06819.4859.20203.6719.38809.1861.18605.3199.41778.3881.67191.052.193.052.425.052.889s0 .697-.051.888c-.0682.25413-.202.48586-.3881.67191-.186.18606-.4178.3199-.6719.38809-.192.052-.425.052-.889.052h-6c-.465 0-.697 0-.888-.051-.2541-.06819-.4859-.20203-.6719-.38809-.1861-.18605-.3199-.41778-.3881-.67191-.052-.193-.052-.425-.052-.889z" stroke="#2b2928" stroke-width="1.5"/><g fill="#2b2928"><path d="m26.5 14c.5523 0 1-.4477 1-1s-.4477-1-1-1-1 .4477-1 1 .4477 1 1 1z"/><path d="m26.5 18c.5523 0 1-.4477 1-1s-.4477-1-1-1-1 .4477-1 1 .4477 1 1 1z"/><path d="m30.5 14c.5523 0 1-.4477 1-1s-.4477-1-1-1-1 .4477-1 1 .4477 1 1 1z"/><path d="m30.5 18c.5523 0 1-.4477 1-1s-.4477-1-1-1-1 .4477-1 1 .4477 1 1 1z"/><path d="m34.5 14c.5523 0 1-.4477 1-1s-.4477-1-1-1-1 .4477-1 1 .4477 1 1 1z"/><path d="m34.5 18c.5523 0 1-.4477 1-1s-.4477-1-1-1-1 .4477-1 1 .4477 1 1 1z"/><path d="m24.15 35.03-2.27 4.34v2.63h-.91v-2.63l-2.28-4.34h1.01l1.72 3.53 1.72-3.53zm1.4298.6c-.1733 0-.32-.06-.44-.18s-.18-.2667-.18-.44.06-.32.18-.44.2667-.18.44-.18c.1667 0 .3067.06.42.18.12.12.18.2667.18.44s-.06.32-.18.44c-.1133.12-.2533.18-.42.18zm.44.89v5.48h-.91v-5.48zm6.551 2.53c0 .1733-.01.3567-.03.55h-4.38c.0333.54.2166.9633.55 1.27.34.3.75.45 1.23.45.3933 0 .72-.09.98-.27.2666-.1867.4533-.4333.56-.74h.98c-.1467.5267-.44.9567-.88 1.29-.44.3267-.9867.49-1.64.49-.52 0-.9867-.1167-1.4-.35-.4067-.2333-.7267-.5633-.96-.99-.2334-.4333-.35-.9333-.35-1.5s.1133-1.0633.34-1.49c.2266-.4267.5433-.7533.95-.98.4133-.2333.8866-.35 1.42-.35.52 0 .98.1133 1.38.34s.7066.54.92.94c.22.3933.33.84.33 1.34zm-.94-.19c0-.3467-.0767-.6433-.23-.89-.1534-.2533-.3634-.4433-.63-.57-.26-.1333-.55-.2-.87-.2-.46 0-.8534.1467-1.18.44-.32.2933-.5034.7-.55 1.22zm3.0512-4.26v7.4h-.91v-7.4zm1.2109 4.64c0-.56.1133-1.05.34-1.47.2267-.4267.5367-.7567.93-.99.4-.2333.8467-.35 1.34-.35.4267 0 .8233.1 1.19.3.3667.1933.6467.45.84.77v-2.9h.92v7.4h-.92v-1.03c-.18.3267-.4467.5967-.8.81-.3533.2067-.7667.31-1.24.31-.4867 0-.93-.12-1.33-.36-.3933-.24-.7033-.5767-.93-1.01s-.34-.9267-.34-1.48zm4.64.01c0-.4133-.0833-.7733-.25-1.08s-.3933-.54-.68-.7c-.28-.1667-.59-.25-.93-.25s-.65.08-.93.24-.5033.3933-.67.7-.25.6667-.25 1.08c0 .42.0833.7867.25 1.1.1667.3067.39.5433.67.71.28.16.59.24.93.24s.65-.08.93-.24c.2867-.1667.5133-.4033.68-.71.1667-.3133.25-.6767.25-1.09z"/></g></svg>