<svg width="162" height="358" viewBox="0 0 162 358" fill="none" xmlns="http://www.w3.org/2000/svg">
<path d="M369.372 101.568C413.06 121.609 444.324 164.495 446.728 215.799C450.336 288.747 378.19 353.678 320.874 354.48L236.704 355.682L237.505 331.233C227.886 271.111 139.307 308.386 121.671 253.876C110.448 218.605 139.707 203.775 153.736 193.354C176.181 176.92 158.946 152.471 187.805 133.633C209.448 119.605 241.113 120.406 261.955 135.236C292.016 156.479 270.773 178.924 295.623 196.961C308.85 206.58 338.51 222.613 323.279 258.686C313.258 281.933 292.817 286.743 267.165 294.358C267.967 310.39 269.971 314.799 276.384 324.018C344.522 326.423 397.429 250.67 348.53 192.151C337.708 179.325 325.684 177.321 321.275 158.082C309.25 107.179 260.752 83.1307 211.453 88.3413C176.983 91.9486 148.525 113.192 136.501 135.637C130.89 146.058 131.29 148.864 128.084 159.686C123.675 174.916 126.08 167.301 114.456 175.317C73.1729 204.176 66.3591 255.479 105.639 295.961C151.331 342.856 209.849 298.767 206.242 356.083V356.484L126.08 357.686C74.3753 358.488 3.03099 299.168 0.225316 243.455C-2.58036 187.742 21.0675 157.682 57.1404 135.637C52.7315 127.22 50.3266 118.001 49.525 107.981C47.9218 70.7056 76.3793 39.0415 113.655 37.4383C128.485 36.6367 142.914 41.0456 154.537 48.661C175.38 20.6043 207.845 1.76615 245.521 0.16291C306.845 -3.04358 360.153 41.4464 369.372 101.568Z" fill="#3ABC4F"/>
</svg>
