<svg width="75" height="60" viewBox="0 0 75 60" fill="none" xmlns="http://www.w3.org/2000/svg">
<path d="M61.9733 16.9901C69.2642 20.3345 74.4816 27.4917 74.883 36.0536C75.485 48.2275 63.4448 59.0636 53.8796 59.1974L39.8328 59.3981L39.9666 55.3178C38.3612 45.2844 23.5786 51.5051 20.6355 42.4081C18.7626 36.5218 23.6455 34.0469 25.9866 32.3078C29.7325 29.5653 26.8562 25.485 31.6723 22.3412C35.2843 20.0001 40.5686 20.1339 44.0469 22.6088C49.0636 26.1539 45.5184 29.8998 49.6656 32.9098C51.8729 34.5151 56.8228 37.1907 54.281 43.2108C52.6087 47.0904 49.1973 47.8931 44.9164 49.164C45.0502 51.8396 45.3846 52.5753 46.4549 54.1138C57.8261 54.5151 66.6555 41.873 58.495 32.1071C56.689 29.9666 54.6823 29.6322 53.9465 26.4215C51.9398 17.9265 43.8462 13.9131 35.6188 14.7827C29.8662 15.3847 25.1171 18.9299 23.1104 22.6757C22.1739 24.4148 22.2408 24.883 21.7057 26.6891C20.9699 29.2309 21.3713 27.96 19.4315 29.2978C12.5418 34.1138 11.4047 42.6757 17.9599 49.4315C25.5853 57.2576 35.3512 49.8998 34.7492 59.465V59.5319L21.3713 59.7325C12.7425 59.8663 0.836152 49.9666 0.367924 40.669C-0.100303 31.3713 3.84618 26.3546 9.86625 22.6757C9.13046 21.271 8.72913 19.7325 8.59535 18.0603C8.32779 11.8396 13.077 6.55528 19.2977 6.28772C21.7726 6.15394 24.1806 6.88972 26.1204 8.16063C29.5987 3.47835 35.0168 0.334541 41.3044 0.0669824C51.5385 -0.468135 60.4348 6.95661 61.9733 16.9901Z" fill="#3ABC4F"/>
</svg>
