<svg width="316" height="180" viewBox="0 0 316 180" fill="none" xmlns="http://www.w3.org/2000/svg">
<g clip-path="url(#clip0_98_4965)">
<path d="M9.15044 172.535H15.4113C20.107 172.535 23.8394 171.09 26.4882 168.321C29.1371 165.552 30.4615 161.699 30.4615 156.883C30.4615 152.067 29.1371 148.335 26.4882 145.445C23.8394 142.676 20.107 141.231 15.4113 141.231H9.15044V172.535ZM15.2909 134.248C22.515 134.248 28.4147 136.294 32.8695 140.508C37.3244 144.602 39.612 150.141 39.612 157.003C39.612 163.866 37.3244 169.284 32.8695 173.378C28.4147 177.472 22.515 179.518 15.2909 179.518H-6.10352e-05V134.368L15.2909 134.248Z" fill="black"/>
<path d="M72.9631 134.127V141.11H55.9866V152.91H70.9163V159.893H55.9866V172.415H72.9631V179.398H46.8361V134.127H72.9631Z" fill="black"/>
<path d="M132.803 134.248H142.555L129.552 179.398H119.077L110.408 147.853L101.378 179.398H91.0233L78.2608 134.248H87.8929L96.5618 169.164L105.712 134.248H116.067L124.615 168.803L132.803 134.248Z" fill="black"/>
<path d="M162.903 140.87C161.097 140.87 159.652 141.351 158.448 142.314C157.244 143.278 156.762 144.482 156.762 146.167C156.762 147.853 157.124 149.057 157.966 150.02C158.809 150.983 159.893 151.706 161.338 152.187C162.662 152.669 164.227 153.151 165.913 153.512C167.599 153.873 169.164 154.355 170.849 154.957C172.535 155.559 173.98 156.161 175.425 157.003C176.749 157.846 177.953 159.05 178.796 160.615C179.639 162.181 180 164.107 180 166.395C180 170.127 178.555 173.258 175.545 176.027C172.535 178.676 168.682 180 163.746 180C158.809 180 154.836 178.796 151.826 176.508C148.816 174.221 147.251 170.97 147.251 166.756H157.003C157.364 170.729 159.652 172.656 163.746 172.656C165.793 172.656 167.478 172.174 168.682 171.09C169.886 170.007 170.488 168.562 170.488 166.756C170.488 164.95 169.645 163.505 168.08 162.542C166.515 161.458 164.589 160.736 162.301 160.254C160.013 159.773 157.726 159.05 155.438 158.328C153.15 157.605 151.224 156.281 149.659 154.475C148.094 152.669 147.251 150.261 147.251 147.251C147.251 143.157 148.696 139.906 151.706 137.378C154.716 134.97 158.568 133.646 163.144 133.646C167.839 133.646 171.572 134.729 174.461 136.896C177.351 139.064 178.916 142.314 179.157 146.649H169.164C169.043 144.963 168.321 143.518 167.237 142.555C166.154 141.472 164.709 140.87 162.903 140.87Z" fill="black"/>
<path d="M203.599 180C198.542 180 194.328 178.314 191.197 174.943C187.946 171.572 186.381 167.117 186.381 161.579C186.381 156.04 187.946 151.585 191.197 148.214C194.448 144.843 198.542 143.157 203.599 143.157C207.813 143.157 211.304 144.12 214.074 146.167C216.722 148.094 218.649 150.983 219.732 154.595H213.351C212.629 152.549 211.425 150.863 209.739 149.779C208.053 148.575 206.007 147.973 203.478 147.973C200.107 147.973 197.458 149.177 195.411 151.465C193.365 153.873 192.281 157.124 192.281 161.458C192.281 165.793 193.365 169.044 195.411 171.452C197.458 173.86 200.227 174.943 203.478 174.943C208.535 174.943 211.786 172.776 213.231 168.321H219.612C218.528 171.813 216.602 174.582 213.833 176.629C211.184 179.037 207.813 180 203.599 180Z" fill="black"/>
<path d="M227.558 179.398V131.478H233.458V179.398H227.558Z" fill="black"/>
<path d="M248.99 137.017C248.268 137.739 247.304 138.221 246.1 138.221C245.017 138.221 244.053 137.86 243.331 137.017C242.609 136.294 242.247 135.331 242.247 134.127C242.247 133.043 242.609 132.08 243.451 131.237C244.174 130.515 245.137 130.033 246.221 130.033C247.304 130.033 248.268 130.395 248.99 131.237C249.712 131.96 250.194 132.923 250.194 134.127C250.074 135.331 249.712 136.294 248.99 137.017ZM243.09 179.398V143.88H248.99V179.398H243.09Z" fill="black"/>
<path d="M264.642 143.88V149.659C267.05 145.445 270.903 143.278 276.201 143.278C278.97 143.278 281.378 143.88 283.545 145.204C285.712 146.529 287.398 148.455 288.482 150.983C289.806 148.575 291.492 146.649 293.779 145.325C295.946 144 298.595 143.278 301.365 143.278C305.338 143.278 308.709 144.602 311.358 147.251C314.007 149.9 315.331 153.632 315.331 158.448V179.398H309.552V159.291C309.552 155.679 308.709 153.03 306.903 151.104C305.097 149.298 302.809 148.335 299.799 148.335C296.789 148.335 294.381 149.298 292.696 151.104C290.89 152.91 290.047 155.679 290.047 159.291V179.398H284.147V159.291C284.147 155.679 283.304 153.03 281.498 151.104C279.813 149.298 277.405 148.335 274.395 148.335C271.385 148.335 268.977 149.298 267.171 151.104C265.365 152.91 264.522 155.679 264.522 159.291V179.398H258.622V143.88H264.642Z" fill="black"/>
<path d="M201.552 30.582C214.676 36.6021 224.067 49.485 224.789 64.8964C225.873 86.8094 204.201 106.314 186.983 106.555L161.699 106.916L161.94 99.572C159.05 81.5118 132.441 92.7091 127.144 76.3345C123.773 65.7392 132.562 61.2844 136.776 58.1539C143.518 53.2175 138.341 45.873 147.01 40.2141C153.512 36.0001 163.023 36.2409 169.284 40.6957C178.314 47.077 171.933 53.8195 179.398 59.2375C183.371 62.1272 192.281 66.9432 187.706 77.7793C184.696 84.7626 178.555 86.2074 170.849 88.495C171.09 93.3111 171.692 94.6355 173.619 97.4047C194.087 98.1272 209.98 75.3713 195.291 57.7927C192.04 53.9399 188.428 53.3379 187.104 47.5586C183.492 32.2676 168.923 25.0435 154.114 26.6088C143.759 27.6924 135.211 34.0737 131.599 40.8161C129.913 43.9466 130.033 44.7894 129.07 48.0402C127.746 52.6155 128.468 50.3278 124.977 52.7359C112.575 61.4048 110.528 76.8161 122.328 88.9767C136.053 103.064 153.632 89.8195 152.548 107.037V107.157L128.468 107.518C112.936 107.759 91.505 89.9399 90.6622 73.2041C89.8194 56.4683 96.923 47.4382 107.759 40.8161C106.435 38.2877 105.712 35.5185 105.472 32.5084C104.99 21.3111 113.538 11.7994 124.736 11.3178C129.191 11.077 133.525 12.4014 137.017 14.689C143.278 6.26094 153.03 0.602076 164.348 0.120471C182.769 -0.84274 198.783 12.5218 201.552 30.582Z" fill="#3ABC4F"/>
</g>
<defs>
<clipPath id="clip0_98_4965">
<rect width="315.331" height="180" fill="white"/>
</clipPath>
</defs>
</svg>
