<svg width="61" height="147" viewBox="0 0 61 147" fill="none" xmlns="http://www.w3.org/2000/svg">
<path d="M28.7992 41.741C46.7536 49.9769 59.6017 67.6019 60.5901 88.686C62.0725 118.665 32.423 145.349 8.86815 145.679L-25.7229 146.173L-25.3935 136.125C-29.3468 111.417 -65.7498 126.736 -72.9974 104.334C-77.6096 89.8391 -65.585 83.7444 -59.8199 79.4617C-50.5956 72.7082 -57.6785 62.6603 -45.8187 54.9185C-36.9239 49.1533 -23.911 49.4828 -15.3456 55.5774C-2.99164 64.3075 -11.7218 73.5318 -1.50918 80.9442C3.92657 84.8975 16.1158 91.4862 9.85646 106.311C5.73846 115.865 -2.66222 117.841 -13.2043 120.971C-12.8748 127.56 -12.0512 129.372 -9.41572 133.16C18.5866 134.149 40.3296 103.017 20.2338 78.9676C15.7864 73.6965 10.8448 72.8729 9.03285 64.9664C4.09128 44.047 -15.8398 34.1639 -36.1003 36.3052C-50.2661 37.7877 -61.9612 46.5178 -66.9028 55.7421C-69.2089 60.0248 -69.0442 61.1779 -70.3619 65.6253C-72.1738 71.8846 -71.1855 68.755 -75.9624 72.0493C-92.9285 83.9091 -95.7287 104.993 -79.5862 121.63C-60.8082 140.902 -36.7591 122.783 -38.2416 146.338V146.503L-71.1855 146.997C-92.4343 147.326 -121.754 122.948 -122.907 100.052C-124.06 77.1556 -114.342 64.8017 -99.5172 55.7421C-101.329 52.283 -102.317 48.4945 -102.647 44.3765C-103.306 29.0576 -91.6107 16.0447 -76.2918 15.3859C-70.1972 15.0564 -64.2673 16.8683 -59.4904 19.998C-50.925 8.46764 -37.5827 0.725828 -22.0991 0.0669506C3.10297 -1.2508 25.0107 17.0331 28.7992 41.741Z" fill="#3ABC4F"/>
</svg>
